# Blender v2.79 (sub 0) OBJ File: 'coin3.blend'
# www.blender.org
mtllib coin.mtl
o Cylinder
v -0.036695 1.043245 -1.000000
v 0.074967 1.043245 -1.000000
v -0.036695 0.848154 -0.980785
v 0.074967 0.848154 -0.980785
v -0.036695 0.660561 -0.923880
v 0.074967 0.660561 -0.923880
v -0.036695 0.487674 -0.831470
v 0.074967 0.487674 -0.831470
v -0.036695 0.336138 -0.707107
v 0.074967 0.336138 -0.707107
v -0.036695 0.211775 -0.555570
v 0.074967 0.211775 -0.555570
v -0.036695 0.119365 -0.382683
v 0.074967 0.119365 -0.382683
v -0.036695 0.062459 -0.195090
v 0.074967 0.062459 -0.195090
v -0.036695 0.043245 -0.000000
v 0.074967 0.043245 -0.000000
v -0.036695 0.062459 0.195090
v 0.074967 0.062459 0.195090
v -0.036695 0.119365 0.382683
v 0.074967 0.119365 0.382683
v -0.036695 0.211775 0.555570
v 0.074967 0.211775 0.555570
v -0.036695 0.336138 0.707107
v 0.074967 0.336138 0.707107
v -0.036695 0.487675 0.831470
v 0.074967 0.487675 0.831470
v -0.036695 0.660561 0.923880
v 0.074967 0.660561 0.923880
v -0.036695 0.848155 0.980785
v 0.074967 0.848155 0.980785
v -0.036695 1.043245 1.000000
v 0.074967 1.043245 1.000000
v -0.036695 1.238335 0.980785
v 0.074967 1.238335 0.980785
v -0.036695 1.425929 0.923879
v 0.074967 1.425929 0.923879
v -0.036695 1.598815 0.831469
v 0.074967 1.598815 0.831469
v -0.036695 1.750352 0.707106
v 0.074967 1.750352 0.707106
v -0.036695 1.874715 0.555570
v 0.074967 1.874715 0.555570
v -0.036695 1.967125 0.382683
v 0.074967 1.967125 0.382683
v -0.036695 2.024030 0.195089
v 0.074967 2.024030 0.195089
v -0.036695 2.043245 -0.000001
v 0.074967 2.043245 -0.000001
v -0.036695 2.024030 -0.195091
v 0.074967 2.024030 -0.195091
v -0.036695 1.967124 -0.382684
v 0.074967 1.967124 -0.382684
v -0.036695 1.874714 -0.555571
v 0.074967 1.874714 -0.555571
v -0.036695 1.750351 -0.707108
v 0.074967 1.750351 -0.707108
v -0.036695 1.598814 -0.831470
v 0.074967 1.598814 -0.831470
v -0.036695 1.425927 -0.923880
v 0.074967 1.425927 -0.923880
v -0.036695 1.238334 -0.980786
v 0.074967 1.238334 -0.980786
v 0.074967 1.043245 -0.803355
v 0.074967 0.886518 -0.787919
v 0.074967 0.735814 -0.742204
v 0.074967 0.596924 -0.667966
v 0.074967 0.475187 -0.568058
v 0.074967 0.375279 -0.446320
v 0.074967 0.301041 -0.307431
v 0.074967 0.255326 -0.156727
v 0.074967 0.239889 -0.000000
v 0.074967 0.255326 0.156727
v 0.074967 0.301041 0.307431
v 0.074967 0.375279 0.446320
v 0.074967 0.475187 0.568058
v 0.074967 0.596924 0.667966
v 0.074967 0.735814 0.742204
v 0.074967 0.886518 0.787919
v 0.074967 1.043245 0.803355
v 0.074967 1.199972 0.787919
v 0.074967 1.350676 0.742203
v 0.074967 1.489565 0.667965
v 0.074967 1.611303 0.568058
v 0.074967 1.711211 0.446320
v 0.074967 1.785449 0.307430
v 0.074967 1.831164 0.156726
v 0.074967 1.846600 -0.000001
v 0.074967 1.831164 -0.156728
v 0.074967 1.785448 -0.307432
v 0.074967 1.711210 -0.446321
v 0.074967 1.611302 -0.568059
v 0.074967 1.489564 -0.667966
v 0.074967 1.350674 -0.742204
v 0.074967 1.199970 -0.787919
v 0.019338 1.043245 -0.803355
v 0.019338 0.886518 -0.787919
v 0.019338 0.735814 -0.742204
v 0.019338 0.596924 -0.667966
v 0.019338 0.475187 -0.568058
v 0.019338 0.375279 -0.446320
v 0.019338 0.301041 -0.307431
v 0.019338 0.255326 -0.156727
v 0.019338 0.239889 -0.000000
v 0.019338 0.255326 0.156727
v 0.019338 0.301041 0.307431
v 0.019338 0.375279 0.446320
v 0.019338 0.475187 0.568058
v 0.019338 0.596924 0.667966
v 0.019338 0.735814 0.742204
v 0.019338 0.886518 0.787919
v 0.019338 1.043245 0.803355
v 0.019338 1.199972 0.787919
v 0.019338 1.350676 0.742203
v 0.019338 1.489565 0.667965
v 0.019338 1.611303 0.568058
v 0.019338 1.711211 0.446320
v 0.019338 1.785449 0.307430
v 0.019338 1.831164 0.156726
v 0.019338 1.846600 -0.000001
v 0.019338 1.831164 -0.156728
v 0.019338 1.785448 -0.307432
v 0.019338 1.711210 -0.446321
v 0.019338 1.611302 -0.568059
v 0.019338 1.489564 -0.667966
v 0.019338 1.350674 -0.742204
v 0.019338 1.199970 -0.787919
v -0.036695 1.043245 -1.000000
v -0.148358 1.043245 -1.000000
v -0.036695 0.848154 -0.980785
v -0.148358 0.848154 -0.980785
v -0.036695 0.660561 -0.923880
v -0.148358 0.660561 -0.923880
v -0.036695 0.487674 -0.831470
v -0.148358 0.487674 -0.831470
v -0.036695 0.336138 -0.707107
v -0.148358 0.336138 -0.707107
v -0.036695 0.211775 -0.555570
v -0.148358 0.211775 -0.555570
v -0.036695 0.119365 -0.382683
v -0.148358 0.119365 -0.382683
v -0.036695 0.062459 -0.195090
v -0.148358 0.062459 -0.195090
v -0.036695 0.043245 -0.000000
v -0.148358 0.043245 -0.000000
v -0.036695 0.062459 0.195090
v -0.148358 0.062459 0.195090
v -0.036695 0.119365 0.382683
v -0.148358 0.119365 0.382683
v -0.036695 0.211775 0.555570
v -0.148358 0.211775 0.555570
v -0.036695 0.336138 0.707107
v -0.148358 0.336138 0.707107
v -0.036695 0.487675 0.831470
v -0.148358 0.487675 0.831470
v -0.036695 0.660561 0.923880
v -0.148358 0.660561 0.923880
v -0.036695 0.848155 0.980785
v -0.148358 0.848155 0.980785
v -0.036695 1.043245 1.000000
v -0.148358 1.043245 1.000000
v -0.036695 1.238335 0.980785
v -0.148358 1.238335 0.980785
v -0.036695 1.425929 0.923879
v -0.148358 1.425929 0.923879
v -0.036695 1.598815 0.831469
v -0.148358 1.598815 0.831469
v -0.036695 1.750352 0.707106
v -0.148358 1.750352 0.707106
v -0.036695 1.874715 0.555570
v -0.148358 1.874715 0.555570
v -0.036695 1.967125 0.382683
v -0.148358 1.967125 0.382683
v -0.036695 2.024030 0.195089
v -0.148358 2.024030 0.195089
v -0.036695 2.043245 -0.000001
v -0.148358 2.043245 -0.000001
v -0.036695 2.024030 -0.195091
v -0.148358 2.024030 -0.195091
v -0.036695 1.967124 -0.382684
v -0.148358 1.967124 -0.382684
v -0.036695 1.874714 -0.555571
v -0.148358 1.874714 -0.555571
v -0.036695 1.750351 -0.707108
v -0.148358 1.750351 -0.707108
v -0.036695 1.598814 -0.831470
v -0.148358 1.598814 -0.831470
v -0.036695 1.425927 -0.923880
v -0.148358 1.425927 -0.923880
v -0.036695 1.238334 -0.980786
v -0.148358 1.238334 -0.980786
v -0.148358 1.043245 -0.803355
v -0.148358 0.886518 -0.787919
v -0.148358 0.735814 -0.742204
v -0.148358 0.596924 -0.667966
v -0.148358 0.475187 -0.568058
v -0.148358 0.375279 -0.446320
v -0.148358 0.301041 -0.307431
v -0.148358 0.255326 -0.156727
v -0.148358 0.239889 -0.000000
v -0.148358 0.255326 0.156727
v -0.148358 0.301041 0.307431
v -0.148358 0.375279 0.446320
v -0.148358 0.475187 0.568058
v -0.148358 0.596924 0.667966
v -0.148358 0.735814 0.742204
v -0.148358 0.886518 0.787919
v -0.148358 1.043245 0.803355
v -0.148358 1.199972 0.787919
v -0.148358 1.350676 0.742203
v -0.148358 1.489565 0.667965
v -0.148358 1.611303 0.568058
v -0.148358 1.711211 0.446320
v -0.148358 1.785449 0.307430
v -0.148358 1.831164 0.156726
v -0.148358 1.846600 -0.000001
v -0.148358 1.831164 -0.156728
v -0.148358 1.785448 -0.307432
v -0.148358 1.711210 -0.446321
v -0.148358 1.611302 -0.568059
v -0.148358 1.489564 -0.667966
v -0.148358 1.350674 -0.742204
v -0.148358 1.199970 -0.787919
v -0.092729 1.043245 -0.803355
v -0.092729 0.886518 -0.787919
v -0.092729 0.735814 -0.742204
v -0.092729 0.596924 -0.667966
v -0.092729 0.475187 -0.568058
v -0.092729 0.375279 -0.446320
v -0.092729 0.301041 -0.307431
v -0.092729 0.255326 -0.156727
v -0.092729 0.239889 -0.000000
v -0.092729 0.255326 0.156727
v -0.092729 0.301041 0.307431
v -0.092729 0.375279 0.446320
v -0.092729 0.475187 0.568058
v -0.092729 0.596924 0.667966
v -0.092729 0.735814 0.742204
v -0.092729 0.886518 0.787919
v -0.092729 1.043245 0.803355
v -0.092729 1.199972 0.787919
v -0.092729 1.350676 0.742203
v -0.092729 1.489565 0.667965
v -0.092729 1.611303 0.568058
v -0.092729 1.711211 0.446320
v -0.092729 1.785449 0.307430
v -0.092729 1.831164 0.156726
v -0.092729 1.846600 -0.000001
v -0.092729 1.831164 -0.156728
v -0.092729 1.785448 -0.307432
v -0.092729 1.711210 -0.446321
v -0.092729 1.611302 -0.568059
v -0.092729 1.489564 -0.667966
v -0.092729 1.350674 -0.742204
v -0.092729 1.199970 -0.787919
v -0.121842 1.052516 -0.376437
v 0.051717 1.052516 -0.376437
v -0.121842 0.959887 -0.369453
v 0.051717 0.959887 -0.369453
v -0.121842 0.870817 -0.348770
v 0.051717 0.870816 -0.348770
v -0.121842 0.788729 -0.315183
v 0.051717 0.788729 -0.315183
v -0.121842 0.716779 -0.269983
v 0.051717 0.716779 -0.269983
v -0.121842 0.657731 -0.214906
v 0.051717 0.657731 -0.214906
v -0.121842 0.613854 -0.152069
v 0.051717 0.613854 -0.152069
v -0.121842 1.491178 -0.152069
v 0.051717 1.491178 -0.152069
v -0.121842 1.447301 -0.214906
v 0.051717 1.447301 -0.214906
v -0.121842 1.388253 -0.269983
v 0.051717 1.388253 -0.269983
v -0.121842 1.316303 -0.315184
v 0.051717 1.316303 -0.315184
v -0.121842 1.234215 -0.348770
v 0.051717 1.234215 -0.348770
v -0.121842 1.145145 -0.369453
v 0.051717 1.145145 -0.369453
v 0.051717 0.657731 -0.115095
v -0.121842 0.657731 -0.115095
v 0.051717 1.493124 -0.147159
v 0.051717 1.491179 -0.144835
v -0.121842 1.493124 -0.147159
v -0.121842 1.491179 -0.144835
v 0.051717 1.447302 -0.115095
v -0.121842 1.447302 -0.115095
v 0.051717 1.388254 -0.089028
v -0.121842 1.388254 -0.089028
v 0.051717 1.145146 -0.041949
v -0.121842 1.145146 -0.041949
v 0.051717 1.052516 -0.038644
v -0.121842 1.052516 -0.038644
v 0.051717 1.234216 -0.051738
v -0.121842 1.234216 -0.051738
v 0.051717 0.959887 -0.041949
v -0.121842 0.959887 -0.041949
v 0.051717 0.788729 -0.067635
v -0.121842 0.788729 -0.067635
v 0.051717 0.716779 -0.089028
v -0.121842 0.716779 -0.089028
v -0.121842 0.611909 -0.147159
v 0.051717 0.611909 -0.147159
v 0.051717 0.613854 -0.144835
v -0.121842 0.613854 -0.144835
v 0.051717 1.316304 -0.067635
v -0.121842 1.316304 -0.067635
v 0.051717 0.870817 -0.051738
v -0.121842 0.870817 -0.051738
v -0.121842 0.613854 0.126108
v 0.051717 0.613854 0.126108
v -0.121842 0.657731 0.188945
v 0.051717 0.657731 0.188945
v -0.121842 0.716779 0.244022
v 0.051717 0.716779 0.244022
v -0.121842 0.788729 0.289223
v 0.051717 0.788729 0.289223
v -0.121842 0.870817 0.322810
v 0.051717 0.870817 0.322810
v -0.121842 0.959887 0.343492
v 0.051717 0.959887 0.343492
v -0.121842 1.052516 0.350476
v 0.051717 1.052516 0.350476
v -0.121842 1.145146 0.343492
v 0.051717 1.145146 0.343492
v -0.121842 1.234216 0.322810
v 0.051717 1.234216 0.322810
v -0.121842 1.316304 0.289223
v 0.051717 1.316304 0.289223
v -0.121842 1.388254 0.244022
v 0.051717 1.388254 0.244022
v -0.121842 1.447302 0.188945
v 0.051717 1.447302 0.188945
v -0.121842 1.491179 0.126108
v 0.051717 1.491179 0.126108
v 0.051717 0.657731 0.088390
v -0.121842 0.657731 0.088390
v 0.051717 1.491179 0.118131
v 0.051717 1.493324 0.120693
v -0.121842 1.493324 0.120693
v -0.121842 1.491179 0.118131
v 0.051717 1.447302 0.088390
v -0.121842 1.447302 0.088390
v 0.051717 1.388254 0.062323
v -0.121842 1.388254 0.062323
v 0.051717 1.145146 0.015245
v -0.121842 1.145146 0.015245
v 0.051717 1.052516 0.011939
v -0.121842 1.052516 0.011939
v 0.051717 1.234216 0.025034
v -0.121842 1.234216 0.025034
v 0.051717 0.959887 0.015245
v -0.121842 0.959887 0.015245
v 0.051717 0.788729 0.040930
v -0.121842 0.788729 0.040930
v 0.051717 0.716779 0.062323
v -0.121842 0.716779 0.062323
v 0.051717 0.613854 0.118130
v -0.121842 0.611708 0.120693
v 0.051717 0.611708 0.120693
v -0.121842 0.613854 0.118130
v 0.051717 1.316304 0.040930
v -0.121842 1.316304 0.040930
v 0.051717 0.870817 0.025034
v -0.121842 0.870817 0.025034
vn 0.0000 -0.0980 -0.9952
vn 0.0000 -0.2903 -0.9569
vn 0.0000 -0.4714 -0.8819
vn 0.0000 -0.6344 -0.7730
vn 0.0000 -0.7730 -0.6344
vn 0.0000 -0.8819 -0.4714
vn 0.0000 -0.9569 -0.2903
vn 0.0000 -0.9952 -0.0980
vn 0.0000 -0.9952 0.0980
vn 0.0000 -0.9569 0.2903
vn 0.0000 -0.8819 0.4714
vn 0.0000 -0.7730 0.6344
vn 0.0000 -0.6344 0.7730
vn 0.0000 -0.4714 0.8819
vn 0.0000 -0.2903 0.9569
vn 0.0000 -0.0980 0.9952
vn 0.0000 0.0980 0.9952
vn 0.0000 0.2903 0.9569
vn 0.0000 0.4714 0.8819
vn 0.0000 0.6344 0.7730
vn 0.0000 0.7730 0.6344
vn 0.0000 0.8819 0.4714
vn 0.0000 0.9569 0.2903
vn 0.0000 0.9952 0.0980
vn 0.0000 0.9952 -0.0980
vn 0.0000 0.9569 -0.2903
vn 0.0000 0.8819 -0.4714
vn 0.0000 0.7730 -0.6344
vn 0.0000 0.6344 -0.7730
vn 0.0000 0.4714 -0.8819
vn 1.0000 0.0000 -0.0000
vn 0.0000 0.2903 -0.9569
vn 0.0000 0.0980 -0.9952
vn -1.0000 -0.0000 0.0000
vn -0.0000 -0.0752 -0.9972
vn -0.0000 -0.2262 -0.9741
vn -0.0000 -0.3787 -0.9255
vn -0.0000 -0.5320 -0.8468
vn -0.0000 -0.6821 -0.7313
vn -0.0000 -0.8199 -0.5725
vn -0.0000 -0.9297 -0.3684
vn 0.0000 0.8199 -0.5725
vn 0.0000 0.6821 -0.7313
vn 0.0000 0.5320 -0.8468
vn 0.0000 0.3787 -0.9255
vn 0.0000 0.2262 -0.9741
vn 0.0000 0.0752 -0.9972
vn 0.0000 0.4039 0.9148
vn -0.0000 -0.5611 0.8278
vn 0.0000 0.1092 0.9940
vn -0.0000 -0.7667 0.6420
vn -0.0000 -0.0357 0.9994
vn -0.0000 -0.1092 0.9940
vn 0.0000 0.7667 0.6420
vn -0.0000 -0.4039 0.9148
vn 0.0000 0.9297 -0.3684
vn 0.0000 0.2850 0.9585
vn 0.0000 0.1901 0.9818
vn 0.0000 0.5611 0.8278
vn 0.0000 0.0357 0.9994
vn -0.0000 -0.1901 0.9818
vn -0.0000 -0.2850 0.9585
vn -0.0000 -0.8199 0.5725
vn -0.0000 -0.6821 0.7313
vn -0.0000 -0.5320 0.8468
vn -0.0000 -0.3787 0.9255
vn -0.0000 -0.2262 0.9741
vn -0.0000 -0.0752 0.9972
vn 0.0000 0.0752 0.9972
vn 0.0000 0.2262 0.9741
vn 0.0000 0.3787 0.9255
vn 0.0000 0.5320 0.8468
vn 0.0000 0.6821 0.7313
vn 0.0000 0.8199 0.5725
vn 0.0000 0.9297 0.3684
vn 0.0000 0.4039 -0.9148
vn -0.0000 -0.5611 -0.8278
vn 0.0000 0.1092 -0.9940
vn -0.0000 -0.7667 -0.6420
vn -0.0000 -0.0357 -0.9994
vn -0.0000 -0.1092 -0.9940
vn 0.0000 0.7667 -0.6420
vn -0.0000 -0.4039 -0.9148
vn 0.0000 0.2850 -0.9585
vn 0.0000 0.1901 -0.9818
vn -0.0000 -0.9297 0.3684
vn 0.0000 0.5611 -0.8278
vn 0.0000 0.0357 -0.9994
vn -0.0000 -0.1901 -0.9818
vn -0.0000 -0.2850 -0.9585
usemtl Material.001
s off
f 1//1 2//1 4//1 3//1
f 3//2 4//2 6//2 5//2
f 5//3 6//3 8//3 7//3
f 7//4 8//4 10//4 9//4
f 9//5 10//5 12//5 11//5
f 11//6 12//6 14//6 13//6
f 13//7 14//7 16//7 15//7
f 15//8 16//8 18//8 17//8
f 17//9 18//9 20//9 19//9
f 19//10 20//10 22//10 21//10
f 21//11 22//11 24//11 23//11
f 23//12 24//12 26//12 25//12
f 25//13 26//13 28//13 27//13
f 27//14 28//14 30//14 29//14
f 29//15 30//15 32//15 31//15
f 31//16 32//16 34//16 33//16
f 33//17 34//17 36//17 35//17
f 35//18 36//18 38//18 37//18
f 37//19 38//19 40//19 39//19
f 39//20 40//20 42//20 41//20
f 41//21 42//21 44//21 43//21
f 43//22 44//22 46//22 45//22
f 45//23 46//23 48//23 47//23
f 47//24 48//24 50//24 49//24
f 49//25 50//25 52//25 51//25
f 51//26 52//26 54//26 53//26
f 53//27 54//27 56//27 55//27
f 55//28 56//28 58//28 57//28
f 57//29 58//29 60//29 59//29
f 59//30 60//30 62//30 61//30
f 46//31 44//31 86//31 87//31
f 61//32 62//32 64//32 63//32
f 63//33 64//33 2//33 1//33
f 1//34 3//34 5//34 7//34 9//34 11//34 13//34 15//34 17//34 19//34 21//34 23//34 25//34 27//34 29//34 31//34 33//34 35//34 37//34 39//34 41//34 43//34 45//34 47//34 49//34 51//34 53//34 55//34 57//34 59//34 61//34 63//34
f 89//8 88//8 120//8 121//8
f 64//31 62//31 95//31 96//31
f 20//31 18//31 73//31 74//31
f 38//31 36//31 82//31 83//31
f 56//31 54//31 91//31 92//31
f 12//31 10//31 69//31 70//31
f 30//31 28//31 78//31 79//31
f 48//31 46//31 87//31 88//31
f 4//31 2//31 65//31 66//31
f 2//31 64//31 96//31 65//31
f 22//31 20//31 74//31 75//31
f 40//31 38//31 83//31 84//31
f 58//31 56//31 92//31 93//31
f 14//31 12//31 70//31 71//31
f 32//31 30//31 79//31 80//31
f 50//31 48//31 88//31 89//31
f 6//31 4//31 66//31 67//31
f 24//31 22//31 75//31 76//31
f 42//31 40//31 84//31 85//31
f 60//31 58//31 93//31 94//31
f 16//31 14//31 71//31 72//31
f 34//31 32//31 80//31 81//31
f 52//31 50//31 89//31 90//31
f 8//31 6//31 67//31 68//31
f 26//31 24//31 76//31 77//31
f 44//31 42//31 85//31 86//31
f 62//31 60//31 94//31 95//31
f 18//31 16//31 72//31 73//31
f 36//31 34//31 81//31 82//31
f 54//31 52//31 90//31 91//31
f 10//31 8//31 68//31 69//31
f 28//31 26//31 77//31 78//31
f 98//31 97//31 128//31 127//31 126//31 125//31 124//31 123//31 122//31 121//31 120//31 119//31 118//31 117//31 116//31 115//31 114//31 113//31 112//31 111//31 110//31 109//31 108//31 107//31 106//31 105//31 104//31 103//31 102//31 101//31 100//31 99//31
f 76//27 75//27 107//27 108//27
f 90//9 89//9 121//9 122//9
f 77//28 76//28 108//28 109//28
f 91//10 90//10 122//10 123//10
f 78//29 77//29 109//29 110//29
f 92//11 91//11 123//11 124//11
f 79//30 78//30 110//30 111//30
f 66//17 65//17 97//17 98//17
f 93//12 92//12 124//12 125//12
f 80//32 79//32 111//32 112//32
f 67//18 66//18 98//18 99//18
f 94//13 93//13 125//13 126//13
f 81//33 80//33 112//33 113//33
f 68//19 67//19 99//19 100//19
f 95//14 94//14 126//14 127//14
f 82//1 81//1 113//1 114//1
f 69//20 68//20 100//20 101//20
f 96//15 95//15 127//15 128//15
f 83//2 82//2 114//2 115//2
f 70//21 69//21 101//21 102//21
f 65//16 96//16 128//16 97//16
f 84//3 83//3 115//3 116//3
f 71//22 70//22 102//22 103//22
f 85//4 84//4 116//4 117//4
f 72//23 71//23 103//23 104//23
f 86//5 85//5 117//5 118//5
f 73//24 72//24 104//24 105//24
f 87//6 86//6 118//6 119//6
f 74//25 73//25 105//25 106//25
f 88//7 87//7 119//7 120//7
f 75//26 74//26 106//26 107//26
f 129//1 131//1 132//1 130//1
f 131//2 133//2 134//2 132//2
f 133//3 135//3 136//3 134//3
f 135//4 137//4 138//4 136//4
f 137//5 139//5 140//5 138//5
f 139//6 141//6 142//6 140//6
f 141//7 143//7 144//7 142//7
f 143//8 145//8 146//8 144//8
f 145//9 147//9 148//9 146//9
f 147//10 149//10 150//10 148//10
f 149//11 151//11 152//11 150//11
f 151//12 153//12 154//12 152//12
f 153//13 155//13 156//13 154//13
f 155//14 157//14 158//14 156//14
f 157//15 159//15 160//15 158//15
f 159//16 161//16 162//16 160//16
f 161//17 163//17 164//17 162//17
f 163//18 165//18 166//18 164//18
f 165//19 167//19 168//19 166//19
f 167//20 169//20 170//20 168//20
f 169//21 171//21 172//21 170//21
f 171//22 173//22 174//22 172//22
f 173//23 175//23 176//23 174//23
f 175//24 177//24 178//24 176//24
f 177//25 179//25 180//25 178//25
f 179//26 181//26 182//26 180//26
f 181//27 183//27 184//27 182//27
f 183//28 185//28 186//28 184//28
f 185//29 187//29 188//29 186//29
f 187//30 189//30 190//30 188//30
f 174//34 215//34 214//34 172//34
f 189//32 191//32 192//32 190//32
f 191//33 129//33 130//33 192//33
f 129//31 191//31 189//31 187//31 185//31 183//31 181//31 179//31 177//31 175//31 173//31 171//31 169//31 167//31 165//31 163//31 161//31 159//31 157//31 155//31 153//31 151//31 149//31 147//31 145//31 143//31 141//31 139//31 137//31 135//31 133//31 131//31
f 217//8 249//8 248//8 216//8
f 192//34 224//34 223//34 190//34
f 148//34 202//34 201//34 146//34
f 166//34 211//34 210//34 164//34
f 184//34 220//34 219//34 182//34
f 140//34 198//34 197//34 138//34
f 158//34 207//34 206//34 156//34
f 176//34 216//34 215//34 174//34
f 132//34 194//34 193//34 130//34
f 130//34 193//34 224//34 192//34
f 150//34 203//34 202//34 148//34
f 168//34 212//34 211//34 166//34
f 186//34 221//34 220//34 184//34
f 142//34 199//34 198//34 140//34
f 160//34 208//34 207//34 158//34
f 178//34 217//34 216//34 176//34
f 134//34 195//34 194//34 132//34
f 152//34 204//34 203//34 150//34
f 170//34 213//34 212//34 168//34
f 188//34 222//34 221//34 186//34
f 144//34 200//34 199//34 142//34
f 162//34 209//34 208//34 160//34
f 180//34 218//34 217//34 178//34
f 136//34 196//34 195//34 134//34
f 154//34 205//34 204//34 152//34
f 172//34 214//34 213//34 170//34
f 190//34 223//34 222//34 188//34
f 146//34 201//34 200//34 144//34
f 164//34 210//34 209//34 162//34
f 182//34 219//34 218//34 180//34
f 138//34 197//34 196//34 136//34
f 156//34 206//34 205//34 154//34
f 226//34 227//34 228//34 229//34 230//34 231//34 232//34 233//34 234//34 235//34 236//34 237//34 238//34 239//34 240//34 241//34 242//34 243//34 244//34 245//34 246//34 247//34 248//34 249//34 250//34 251//34 252//34 253//34 254//34 255//34 256//34 225//34
f 204//27 236//27 235//27 203//27
f 218//9 250//9 249//9 217//9
f 205//28 237//28 236//28 204//28
f 219//10 251//10 250//10 218//10
f 206//29 238//29 237//29 205//29
f 220//11 252//11 251//11 219//11
f 207//30 239//30 238//30 206//30
f 194//17 226//17 225//17 193//17
f 221//12 253//12 252//12 220//12
f 208//32 240//32 239//32 207//32
f 195//18 227//18 226//18 194//18
f 222//13 254//13 253//13 221//13
f 209//33 241//33 240//33 208//33
f 196//19 228//19 227//19 195//19
f 223//14 255//14 254//14 222//14
f 210//1 242//1 241//1 209//1
f 197//20 229//20 228//20 196//20
f 224//15 256//15 255//15 223//15
f 211//2 243//2 242//2 210//2
f 198//21 230//21 229//21 197//21
f 193//16 225//16 256//16 224//16
f 212//3 244//3 243//3 211//3
f 199//22 231//22 230//22 198//22
f 213//4 245//4 244//4 212//4
f 200//23 232//23 231//23 199//23
f 214//5 246//5 245//5 213//5
f 201//24 233//24 232//24 200//24
f 215//6 247//6 246//6 214//6
f 202//25 234//25 233//25 201//25
f 216//7 248//7 247//7 215//7
f 203//26 235//26 234//26 202//26
usemtl Material.002
f 257//35 258//35 260//35 259//35
f 259//36 260//36 262//36 261//36
f 261//37 262//37 264//37 263//37
f 263//38 264//38 266//38 265//38
f 265//39 266//39 268//39 267//39
f 267//40 268//40 270//40 269//40
f 269//41 270//41 306//41 305//41
f 271//42 272//42 274//42 273//42
f 273//43 274//43 276//43 275//43
f 275//44 276//44 278//44 277//44
f 277//45 278//45 280//45 279//45
f 260//31 258//31 282//31 280//31 278//31 276//31 274//31 272//31 285//31 286//31 289//31 291//31 309//31 297//31 293//31 295//31 299//31 311//31 301//31 303//31 283//31 307//31 306//31 270//31 268//31 266//31 264//31 262//31
f 279//46 280//46 282//46 281//46
f 281//47 282//47 258//47 257//47
f 257//34 259//34 261//34 263//34 265//34 267//34 269//34 305//34 308//34 284//34 304//34 302//34 312//34 300//34 296//34 294//34 298//34 310//34 292//34 290//34 288//34 287//34 271//34 273//34 275//34 277//34 279//34 281//34
f 290//48 292//48 291//48 289//48
f 284//49 308//49 307//49 283//49
f 298//50 294//50 293//50 297//50
f 308//51 305//51 306//51 307//51
f 296//52 300//52 299//52 295//52
f 300//53 312//53 311//53 299//53
f 286//54 285//54 287//54 288//54
f 304//55 284//55 283//55 303//55
f 287//56 285//56 272//56 271//56
f 292//57 310//57 309//57 291//57
f 310//58 298//58 297//58 309//58
f 288//59 290//59 289//59 286//59
f 294//60 296//60 295//60 293//60
f 312//61 302//61 301//61 311//61
f 302//62 304//62 303//62 301//62
f 313//63 314//63 316//63 315//63
f 315//64 316//64 318//64 317//64
f 317//65 318//65 320//65 319//65
f 319//66 320//66 322//66 321//66
f 321//67 322//67 324//67 323//67
f 323//68 324//68 326//68 325//68
f 325//69 326//69 328//69 327//69
f 327//70 328//70 330//70 329//70
f 329//71 330//71 332//71 331//71
f 331//72 332//72 334//72 333//72
f 333//73 334//73 336//73 335//73
f 335//74 336//74 338//74 337//74
f 337//75 338//75 342//75 343//75
f 348//76 346//76 345//76 347//76
f 364//77 340//77 339//77 361//77
f 350//78 354//78 353//78 349//78
f 361//79 363//79 362//79 364//79
f 363//31 361//31 339//31 359//31 357//31 367//31 355//31 351//31 349//31 353//31 365//31 347//31 345//31 341//31 342//31 338//31 336//31 334//31 332//31 330//31 328//31 326//31 324//31 322//31 320//31 318//31 316//31 314//31
f 356//80 352//80 351//80 355//80
f 368//81 356//81 355//81 367//81
f 344//82 343//82 342//82 341//82
f 340//83 360//83 359//83 339//83
f 366//84 348//84 347//84 365//84
f 354//85 366//85 365//85 353//85
f 362//86 363//86 314//86 313//86
f 346//87 344//87 341//87 345//87
f 352//88 350//88 349//88 351//88
f 343//34 344//34 346//34 348//34 366//34 354//34 350//34 352//34 356//34 368//34 358//34 360//34 340//34 364//34 362//34 313//34 315//34 317//34 319//34 321//34 323//34 325//34 327//34 329//34 331//34 333//34 335//34 337//34
f 358//89 368//89 367//89 357//89
f 360//90 358//90 357//90 359//90
