# Blender v2.79 (sub 0) OBJ File: 'granary7.blend'
# www.blender.org
mtllib granary.mtl
o Cylinder.003_Cylinder.009
v 0.000000 0.644783 -1.148329
v 0.000000 1.989982 -1.148329
v 0.994482 0.644783 -0.574164
v 0.994482 1.989982 -0.574164
v 0.994482 0.644783 0.574165
v 0.994482 1.989982 0.574165
v -0.000000 0.644783 1.148329
v -0.000000 1.989982 1.148329
v -0.994482 0.644783 0.574164
v -0.994482 1.989982 0.574164
v -0.994482 0.644783 -0.574164
v -0.994482 1.989982 -0.574164
v 0.857159 2.382920 0.542671
v -0.026970 2.382920 1.029538
v -0.890673 2.382920 0.507293
v -0.870248 2.382920 -0.501819
v 0.013881 2.382920 -0.988686
v 0.877585 2.382920 -0.466441
v -0.006544 2.780673 0.020426
v -0.044069 2.672037 -0.033751
v -0.003230 2.817460 -0.057330
v 1.288890 1.944816 -0.803336
v 1.329730 2.126170 -0.826915
v 0.018534 2.672037 0.074681
v 0.059374 2.817460 0.051102
v 1.351494 1.944816 -0.694904
v 1.392334 2.126170 -0.718482
v 0.021104 2.672037 0.079133
v -0.019735 2.817460 0.102712
v -1.311856 1.944816 0.848718
v -1.352695 2.126170 0.872297
v -0.041499 2.672037 -0.029299
v -0.082338 2.817460 -0.005720
v -1.374459 1.944816 0.740286
v -1.415299 2.126170 0.763864
v 0.021104 2.672037 -0.033751
v 0.061944 2.817460 -0.010172
v 1.354064 1.944816 0.735834
v 1.394904 2.126170 0.759413
v -0.041499 2.672037 0.074681
v -0.000659 2.817460 0.098260
v 1.291461 1.944816 0.844266
v 1.332300 2.126170 0.867845
v -0.044069 2.672037 0.079133
v -0.084909 2.817460 0.055554
v -1.377029 1.944816 -0.690452
v -1.417869 2.126170 -0.714031
v 0.018534 2.672037 -0.029299
v -0.022306 2.817460 -0.052878
v -1.314426 1.944816 -0.798884
v -1.355266 2.126170 -0.822463
v 0.053691 2.672037 0.022691
v 0.053691 2.817460 0.069849
v 0.053691 1.944816 1.561860
v 0.053691 2.126170 1.609018
v -0.071515 2.672037 0.022691
v -0.071515 2.817460 0.069849
v -0.071515 1.944816 1.561860
v -0.071515 2.126170 1.609018
v 0.932031 2.161572 -0.826724
v 0.994470 2.161572 -0.789591
v 0.981157 2.028464 -1.367427
v 1.054476 2.028464 -1.333724
v -1.402001 2.126091 0.219355
v 0.998099 2.028464 -1.146470
v 1.108039 2.028464 -1.062649
v -1.426853 2.126091 0.155356
v -1.684635 1.950540 0.104288
v -1.697996 1.950540 0.015798
v -0.003254 2.682810 -0.020786
v -0.378244 2.126091 1.347989
v -0.446744 2.126091 1.343390
v 1.399365 2.126091 -0.237168
v 1.423127 2.126091 -0.172757
v 0.890454 2.126091 1.081688
v 0.846793 2.126091 1.134671
v -0.742427 2.101338 -1.305648
v -0.688632 2.101338 -1.353061
v -0.556839 2.101338 -1.239794
v -0.449137 2.101338 -1.298897
v -0.743480 2.395453 0.645520
v -0.792203 2.395453 0.616058
v -0.785085 2.268429 1.069018
v -0.842355 2.268429 1.042182
v 1.091836 2.344946 -0.160958
v -0.797095 2.268429 0.895743
v -0.882781 2.268429 0.829418
v 1.110946 2.344946 -0.110656
v 1.312691 2.207354 -0.069152
v 1.322656 2.207354 0.000279
v 0.295936 2.344946 -1.051407
v 0.349597 2.344946 -1.047410
v -0.005819 2.781291 0.019227
v -1.106373 2.344946 0.180770
v -1.124627 2.344946 0.130151
v -0.699942 2.344946 -0.849972
v -0.665419 2.344946 -0.891247
v 0.566140 2.325546 1.030488
v 0.523706 2.325546 1.067340
v 0.421062 2.325546 0.977809
v 0.336311 2.325546 1.023513
v 1.297423 1.977937 0.434986
v 1.297423 1.977937 0.515614
v 1.841089 1.842981 0.175103
v 1.850533 1.842981 0.264164
v -1.024583 1.951335 -1.198081
v 1.639921 1.842981 0.316615
v 1.622332 1.842981 0.469044
v -0.001984 2.569226 0.000000
v -0.977631 1.951335 -1.258094
v -1.075158 1.756495 -1.532973
v -0.998324 1.756495 -1.595920
v -1.520441 1.951335 0.418801
v -1.554915 1.951335 0.350847
v 1.000148 1.951335 1.215252
v 0.952185 1.951335 1.274460
v -0.546665 1.951335 1.477982
v -0.621976 1.951335 1.466389
v 0.804352 1.923862 -1.434037
v 0.880099 1.923862 -1.409617
v 0.846817 1.923862 -1.219638
v 0.964297 1.923862 -1.150427
v 1.338417 1.977937 -0.284600
v 1.379334 1.977937 -0.215125
v 1.674994 1.842981 -0.784427
v 1.728327 1.842981 -0.712479
v -1.491118 1.951335 -0.513407
v 1.573467 1.842981 -0.560404
v 1.635664 1.842981 -0.420135
v -1.481116 1.951335 -0.588946
v -1.704644 1.756495 -0.776308
v -1.670383 1.756495 -0.869539
v -1.097861 1.951335 1.131442
v -1.162050 1.951335 1.090383
v 1.478228 1.951335 0.538590
v 1.466946 1.951335 0.613948
v 0.278716 1.951335 1.549940
v 0.207940 1.951335 1.578170
v -0.034923 1.923862 -1.644857
v 0.042738 1.923862 -1.662255
v 0.110469 1.923862 -1.481666
v 0.246820 1.923862 -1.481647
v 0.621274 2.598992 0.402384
v -0.020451 2.598992 0.755766
v -0.647351 2.598992 0.376706
v -0.632526 2.598992 -0.355735
v 0.009199 2.598992 -0.709116
v 0.636099 2.598992 -0.330056
v -0.005626 2.887692 0.023325
v -0.076656 2.672037 0.022691
v -0.076656 2.817460 -0.024467
v -0.076656 1.944816 -1.516478
v -0.076656 2.126170 -1.563636
v 0.048550 2.672037 0.022691
v 0.048550 2.817460 -0.024467
v 0.048550 1.944816 -1.516478
v 0.048550 2.126170 -1.563636
v 0.000000 2.005108 -1.429259
v 1.237774 2.005108 -0.714629
v 1.237774 2.005108 0.714629
v -0.000000 2.005108 1.429259
v -1.237775 2.005108 0.714629
v -1.237775 2.005108 -0.714629
v -0.000000 2.568351 0.000000
v -1.109164 2.174540 -0.680554
v 0.014294 2.174540 -1.309976
v 1.121118 2.174540 -0.651744
v 1.104484 2.174540 0.635910
v -0.018974 2.174540 1.265332
v -1.125798 2.174540 0.607100
v -0.002340 2.682022 -0.022322
v 0.000000 0.644783 -1.192640
v 0.000000 1.989982 -1.192640
v 1.032857 0.644783 -0.596320
v 1.032857 1.989982 -0.596320
v 1.032857 0.644783 0.596320
v 1.032857 1.989982 0.596320
v -0.000000 0.644783 1.192641
v -0.000000 1.989982 1.192641
v -1.032857 0.644783 0.596320
v -1.032857 1.989982 0.596320
v -1.032857 0.644783 -0.596320
v -1.032857 1.989982 -0.596320
v 0.866410 0.662829 -0.487958
v -1.046137 0.662829 0.481997
v 1.019577 0.662829 -0.487958
v -1.046137 0.662829 -0.487958
v 1.032857 1.853555 0.493536
v -1.032857 1.853555 0.493536
v 1.032857 1.853555 -0.476419
v -1.032857 1.853555 -0.476419
v 1.019577 0.662829 0.481997
v -0.786601 0.662829 0.481997
v -0.786601 0.662829 -0.487958
v -0.773321 1.853555 0.493536
v -0.773321 1.853555 -0.476419
v 0.879690 1.853555 0.493536
v 0.879690 1.853555 -0.476419
v 0.866410 0.662829 0.481997
v -0.963956 0.662829 -0.655306
v -0.786601 0.662829 -0.348117
v -0.867338 0.662829 -0.487958
v 0.068900 0.662829 1.133655
v -0.950677 1.853555 -0.643767
v -0.773321 1.853555 -0.336578
v -0.854059 1.853555 -0.476419
v 0.082180 1.853555 1.145194
v -0.110671 1.853555 -1.128744
v -0.963956 0.662829 -0.501983
v -0.123951 0.662829 -1.140284
v 0.908906 0.662829 0.648677
v 0.922186 1.853555 0.660217
v -0.773321 1.853555 -0.336578
v -0.854059 1.853555 -0.476419
v -0.786601 0.662829 -0.348117
v -0.867338 0.662829 -0.487958
v -0.950677 1.853555 -0.490444
v -0.110671 1.853555 -0.975421
v -0.123951 0.662829 -0.986960
v 0.028233 0.662829 1.063217
v 0.041513 1.853555 1.074756
v 0.868239 0.662829 0.578240
v 0.881519 1.853555 0.589779
v 0.929598 1.853555 -0.655937
v -0.103259 1.853555 1.133024
v 0.885219 1.853555 -0.579070
v 0.916318 0.662829 -0.667476
v -0.116539 0.662829 1.121485
v 0.076312 0.662829 -1.152453
v -0.786601 0.662829 0.342155
v -0.956545 0.662829 0.636507
v -0.867339 0.662829 0.481997
v 0.089592 1.853555 -1.140914
v -0.943265 1.853555 0.648046
v -0.773321 1.853555 0.353694
v -0.786601 0.662829 0.342155
v -0.854059 1.853555 0.493536
v -0.867339 0.662829 0.481997
v -0.064528 1.853555 1.065940
v -0.077808 0.662829 1.054401
v -0.917814 0.662829 0.569423
v -0.904534 1.853555 0.580962
v 0.871939 0.662829 -0.590609
v 0.031933 0.662829 -1.075587
v 0.045213 1.853555 -1.064048
vn 0.5000 0.0000 -0.8660
vn 1.0000 0.0000 0.0000
vn 0.5000 0.0000 0.8660
vn -0.5000 0.0000 0.8660
vn 0.0000 1.0000 0.0000
vn -1.0000 0.0000 0.0000
vn -0.5000 0.0000 -0.8660
vn 0.0000 -1.0000 0.0000
vn -0.2143 0.9102 0.3544
vn 0.2143 0.9102 -0.3544
vn -0.4141 0.9102 -0.0084
vn 0.1998 0.9102 0.3628
vn 0.4141 0.9102 0.0084
vn -0.1998 0.9102 -0.3628
vn -0.4142 -0.9102 0.0000
vn 0.4142 -0.9102 0.0000
vn -0.2071 -0.9102 -0.3587
vn -0.2071 -0.9102 0.3587
vn 0.2071 -0.9102 0.3587
vn 0.2071 -0.9102 -0.3587
vn 0.2117 0.9102 -0.3560
vn -0.2117 0.9102 0.3560
vn 0.4141 0.9102 0.0053
vn -0.2024 0.9102 -0.3613
vn -0.4141 0.9102 -0.0053
vn 0.2024 0.9102 0.3613
vn 0.8382 -0.2517 -0.4839
vn -0.8238 0.3085 0.4756
vn -0.3700 -0.9042 0.2136
vn 0.3548 0.9122 -0.2049
vn -0.8382 -0.2517 0.4839
vn 0.8238 0.3085 -0.4756
vn 0.3700 -0.9042 -0.2136
vn -0.3548 0.9122 0.2049
vn 0.8382 -0.2517 0.4839
vn -0.8238 0.3085 -0.4756
vn -0.3700 -0.9042 -0.2136
vn 0.3548 0.9122 0.2049
vn -0.8382 -0.2517 -0.4839
vn 0.8238 0.3085 0.4756
vn 0.3700 -0.9042 0.2136
vn -0.3548 0.9122 -0.2049
vn 0.0000 -0.2517 0.9678
vn 0.0000 0.3085 -0.9512
vn 0.0000 -0.9042 -0.4272
vn 0.0000 0.9122 0.4097
vn 0.0000 -0.2517 -0.9678
vn 0.0000 0.3085 0.9512
vn 0.0000 -0.9042 0.4272
vn 0.0000 0.9122 -0.4097
vn 0.4873 -0.0246 -0.8729
vn 0.9954 0.0820 0.0485
vn 0.4504 0.0910 0.8882
vn -0.5096 0.0189 0.8602
vn -0.9949 -0.0868 0.0509
vn -0.5579 -0.1248 -0.8205
vn -0.9996 0.0027 -0.0274
vn 0.9996 -0.0024 -0.0282
vn 0.0000 0.0097 -1.0000
vn 0.0000 -0.0097 1.0000
vn -0.9999 0.0112 0.0000
vn 0.9999 -0.0112 0.0000
vn -0.4719 0.0034 -0.8816
vn 0.5325 -0.0030 0.8464
vn -0.5000 0.0140 -0.8659
vn 0.8660 -0.0048 -0.5000
vn -0.8660 0.0048 0.5000
vn 0.5000 -0.0140 0.8659
vn -0.4934 -0.0006 0.8698
vn 0.5057 0.0006 -0.8627
vn 0.8659 -0.0145 0.4999
vn -0.8659 0.0145 -0.4999
vn -0.5000 -0.0028 0.8660
vn 0.5000 0.0028 -0.8660
vn 0.2079 0.9136 -0.3496
vn 0.1552 0.9284 -0.3377
vn 0.2421 0.9168 -0.3176
vn -0.3464 0.9284 0.1345
vn -0.3949 0.9168 0.0596
vn -0.0249 0.9284 0.3708
vn 0.3486 0.9284 -0.1286
vn 0.2868 0.9284 0.2363
vn -0.2457 0.9284 -0.2788
vn -0.1921 0.9168 -0.3501
vn -0.2006 0.9218 0.3317
vn -0.1577 0.9284 0.3365
vn -0.2444 0.9168 0.3158
vn 0.3474 0.9284 -0.1320
vn 0.3953 0.9168 -0.0567
vn 0.0276 0.9284 -0.3706
vn -0.3496 0.9284 0.1261
vn -0.2850 0.9284 -0.2384
vn 0.2437 0.9284 0.2806
vn 0.1895 0.9168 0.3515
vn 0.4142 0.9102 0.0000
vn 0.3695 0.9284 -0.0392
vn 0.3967 0.9168 0.0458
vn -0.2927 0.9284 -0.2290
vn -0.2531 0.9168 -0.3089
vn -0.3314 0.9284 0.1681
vn 0.2888 0.9284 0.2339
vn -0.0565 0.9284 0.3673
vn 0.1140 0.9284 -0.3537
vn 0.2027 0.9168 -0.3441
vn 0.3569 0.9102 -0.2102
vn 0.2985 0.9284 -0.2213
vn 0.3650 0.9168 -0.1619
vn -0.3684 0.9284 -0.0488
vn -0.3748 0.9168 -0.1377
vn -0.2002 0.9284 0.3131
vn 0.3675 0.9284 0.0550
vn 0.1377 0.9284 0.3452
vn -0.0812 0.9284 -0.3626
vn 0.0001 0.9168 -0.3993
usemtl Material.006
s off
f 1//1 2//1 4//1 3//1
f 3//2 4//2 6//2 5//2
f 5//3 6//3 8//3 7//3
f 7//4 8//4 10//4 9//4
f 4//5 2//5 12//5 10//5 8//5 6//5
f 9//6 10//6 12//6 11//6
f 11//7 12//7 2//7 1//7
f 1//8 3//8 5//8 7//8 9//8 11//8
usemtl Material.005
f 14//8 15//8 16//8 17//8 18//8 13//8
f 15//9 14//9 19//9
f 18//10 17//10 19//10
f 16//11 15//11 19//11
f 14//12 13//12 19//12
f 13//13 18//13 19//13
f 17//14 16//14 19//14
f 144//8 145//8 146//8 147//8 148//8 143//8
f 145//9 144//9 149//9
f 148//10 147//10 149//10
f 146//11 145//11 149//11
f 144//12 143//12 149//12
f 143//13 148//13 149//13
f 147//14 146//14 149//14
f 159//5 158//5 163//5 162//5 161//5 160//5
f 160//15 164//15 159//15
f 163//16 164//16 162//16
f 161//17 164//17 160//17
f 159//18 164//18 158//18
f 158//19 164//19 163//19
f 162//20 164//20 161//20
f 166//8 167//8 168//8 169//8 170//8 165//8
f 167//21 166//21 171//21
f 170//22 169//22 171//22
f 168//23 167//23 171//23
f 166//24 165//24 171//24
f 165//25 170//25 171//25
f 169//26 168//26 171//26
usemtl Material.001
f 20//7 21//7 23//7 22//7
f 22//27 23//27 27//27 26//27
f 26//3 27//3 25//3 24//3
f 24//28 25//28 21//28 20//28
f 22//29 26//29 24//29 20//29
f 27//30 23//30 21//30 25//30
f 28//3 29//3 31//3 30//3
f 30//31 31//31 35//31 34//31
f 34//7 35//7 33//7 32//7
f 32//32 33//32 29//32 28//32
f 30//33 34//33 32//33 28//33
f 35//34 31//34 29//34 33//34
f 36//1 37//1 39//1 38//1
f 38//35 39//35 43//35 42//35
f 42//4 43//4 41//4 40//4
f 40//36 41//36 37//36 36//36
f 38//37 42//37 40//37 36//37
f 43//38 39//38 37//38 41//38
f 44//4 45//4 47//4 46//4
f 46//39 47//39 51//39 50//39
f 50//1 51//1 49//1 48//1
f 48//40 49//40 45//40 44//40
f 46//41 50//41 48//41 44//41
f 51//42 47//42 45//42 49//42
f 52//2 53//2 55//2 54//2
f 54//43 55//43 59//43 58//43
f 58//6 59//6 57//6 56//6
f 56//44 57//44 53//44 52//44
f 54//45 58//45 56//45 52//45
f 59//46 55//46 53//46 57//46
f 150//6 151//6 153//6 152//6
f 152//47 153//47 157//47 156//47
f 156//2 157//2 155//2 154//2
f 154//48 155//48 151//48 150//48
f 152//49 156//49 154//49 150//49
f 157//50 153//50 151//50 155//50
f 172//51 173//51 233//51 229//51 227//51 174//51
f 174//52 175//52 190//52 186//52 192//52 176//52
f 176//53 177//53 212//53 211//53 203//53 178//53
f 178//54 179//54 225//54 228//54 231//54 180//54
f 175//5 173//5 183//5 181//5 179//5 177//5
f 180//55 181//55 189//55 185//55 187//55 182//55
f 182//56 183//56 204//56 200//56 210//56 172//56
f 172//8 174//8 176//8 178//8 180//8 182//8
f 182//57 187//57 191//57 189//57 181//57 183//57
f 176//58 192//58 188//58 190//58 175//58 177//58
f 187//5 185//5 238//5 193//5 232//5 236//5 215//5 194//5 216//5
f 185//59 189//59 237//59 195//59 193//59 238//59
f 189//8 191//8 214//8 196//8 213//8 235//8 195//8 237//8
f 191//60 187//60 216//60 194//60 196//60 214//60
f 194//61 201//61 205//61 196//61
f 192//5 186//5 184//5 199//5
f 188//59 192//59 199//59 197//59
f 190//8 188//8 197//8 198//8
f 186//60 190//60 198//60 184//60
f 198//62 197//62 199//62 184//62
f 172//63 210//63 208//63 204//63 183//63 173//63
f 196//61 205//61 201//61 194//61 215//61 236//61 193//61 195//61 235//61 213//61
f 178//64 203//64 207//64 212//64 177//64 179//64
f 208//61 210//61 219//61 218//61
f 200//62 204//62 217//62 209//62
f 210//5 200//5 209//5 219//5
f 204//8 208//8 218//8 217//8
f 217//65 218//65 219//65 209//65
f 203//5 211//5 222//5 220//5
f 207//66 203//66 220//66 221//66
f 211//67 212//67 223//67 222//67
f 212//8 207//8 221//8 223//8
f 220//68 222//68 223//68 221//68
f 236//5 232//5 193//5
f 180//69 231//69 234//69 225//69 179//69 181//69
f 174//70 227//70 224//70 233//70 173//70 175//70
f 234//71 231//71 241//71 242//71
f 225//8 234//8 242//8 239//8
f 231//5 228//5 240//5 241//5
f 228//72 225//72 239//72 240//72
f 239//73 242//73 241//73 240//73
f 224//72 227//72 243//72 226//72
f 229//71 233//71 245//71 244//71
f 233//8 224//8 226//8 245//8
f 227//5 229//5 244//5 243//5
f 244//74 245//74 226//74 243//74
usemtl Material.003
f 61//75 60//75 70//75
f 63//76 62//76 70//76
f 66//77 65//77 70//77
f 67//78 64//78 70//78
f 69//79 68//79 70//79
f 72//80 71//80 70//80
f 74//81 73//81 70//81
f 76//82 75//82 70//82
f 78//83 77//83 70//83
f 80//84 79//84 70//84
f 82//85 81//85 93//85
f 84//86 83//86 93//86
f 87//87 86//87 93//87
f 88//88 85//88 93//88
f 90//89 89//89 93//89
f 92//90 91//90 93//90
f 95//91 94//91 93//91
f 97//92 96//92 93//92
f 99//93 98//93 93//93
f 101//94 100//94 93//94
f 103//95 102//95 109//95
f 105//96 104//96 109//96
f 108//97 107//97 109//97
f 110//98 106//98 109//98
f 112//99 111//99 109//99
f 114//100 113//100 109//100
f 116//101 115//101 109//101
f 118//102 117//102 109//102
f 120//103 119//103 109//103
f 122//104 121//104 109//104
f 124//105 123//105 109//105
f 126//106 125//106 109//106
f 129//107 128//107 109//107
f 130//108 127//108 109//108
f 132//109 131//109 109//109
f 134//110 133//110 109//110
f 136//111 135//111 109//111
f 138//112 137//112 109//112
f 140//113 139//113 109//113
f 142//114 141//114 109//114
l 194 202
l 196 206
l 193 230
