# Blender v2.79 (sub 0) OBJ File: 'sword2.blend'
# www.blender.org
mtllib sword.mtl
o Cylinder.001
v 0.230821 -1.217215 -0.712601
v 0.230505 0.283967 -0.697813
v 0.361158 -1.217300 -0.701104
v 0.360842 0.283881 -0.686316
v 0.487518 -1.217608 -0.667150
v 0.487202 0.283573 -0.652362
v 0.606062 -1.218129 -0.611771
v 0.605746 0.283052 -0.596983
v 0.713189 -1.218846 -0.536649
v 0.712873 0.282335 -0.521862
v 0.805642 -1.219739 -0.444067
v 0.805326 0.281443 -0.429280
v 0.880614 -1.220779 -0.336838
v 0.880298 0.280402 -0.322051
v 0.935825 -1.221936 -0.218220
v 0.935509 0.279245 -0.203433
v 0.969600 -1.223174 -0.091817
v 0.969283 0.278007 -0.077030
v 0.980910 -1.224456 0.038530
v 0.980594 0.276726 0.053317
v 0.969413 -1.225742 0.168860
v 0.969096 0.275439 0.183647
v 0.935457 -1.226994 0.295214
v 0.935141 0.274188 0.310001
v 0.880075 -1.228173 0.413752
v 0.879759 0.273008 0.428540
v 0.804950 -1.229244 0.520874
v 0.804634 0.271937 0.535661
v 0.712364 -1.230174 0.613322
v 0.712048 0.271007 0.628110
v 0.605131 -1.230935 0.688290
v 0.604814 0.270246 0.703077
v 0.486507 -1.231504 0.743499
v 0.486191 0.269677 0.758286
v 0.360098 -1.231863 0.777271
v 0.359782 0.269318 0.792058
v 0.229745 -1.232002 0.788580
v 0.229429 0.269179 0.803368
v 0.099408 -1.231916 0.777084
v 0.099092 0.269265 0.791871
v -0.026952 -1.231609 0.743130
v -0.027268 0.269573 0.757917
v -0.145496 -1.231088 0.687751
v -0.145813 0.270093 0.702538
v -0.252623 -1.230371 0.612629
v -0.252939 0.270811 0.627416
v -0.345077 -1.229478 0.520047
v -0.345393 0.271703 0.534834
v -0.420048 -1.228438 0.412818
v -0.420364 0.272744 0.427605
v -0.475259 -1.227281 0.294200
v -0.475576 0.273901 0.308987
v -0.509033 -1.226043 0.167797
v -0.509349 0.275138 0.182585
v -0.520344 -1.224761 0.037451
v -0.520660 0.276420 0.052238
v -0.508847 -1.223475 -0.092880
v -0.509163 0.277706 -0.078093
v -0.474891 -1.222223 -0.219234
v -0.475208 0.278958 -0.204447
v -0.419510 -1.221044 -0.337772
v -0.419826 0.280138 -0.322985
v -0.344385 -1.219973 -0.444893
v -0.344701 0.281209 -0.430106
v -0.251799 -1.219043 -0.537342
v -0.252115 0.282138 -0.522555
v -0.144565 -1.218282 -0.612310
v -0.144881 0.282899 -0.597523
v -0.025941 -1.217713 -0.667519
v -0.026258 0.283468 -0.652731
v 0.100468 -1.217354 -0.701291
v 0.100152 0.283828 -0.686504
v 0.231294 -3.461127 -0.734704
v 0.361631 -3.461212 -0.723207
v 0.487991 -3.461520 -0.689253
v 0.606535 -3.462041 -0.633874
v 0.713662 -3.462758 -0.558752
v 0.806115 -3.463651 -0.466170
v 0.881087 -3.464691 -0.358941
v 0.936298 -3.465848 -0.240323
v 0.970072 -3.467086 -0.113921
v 0.981382 -3.468368 0.016426
v 0.969885 -3.469654 0.146757
v 0.935930 -3.470906 0.273111
v 0.880548 -3.472085 0.391649
v 0.805423 -3.473156 0.498770
v 0.712837 -3.474086 0.591219
v 0.605603 -3.474847 0.666187
v 0.486980 -3.475416 0.721395
v 0.360571 -3.475775 0.755168
v 0.230218 -3.475914 0.766477
v 0.099881 -3.475828 0.754980
v -0.026479 -3.475520 0.721026
v -0.145024 -3.475000 0.665647
v -0.252150 -3.474282 0.590526
v -0.344604 -3.473390 0.497944
v -0.419575 -3.472350 0.390715
v -0.474787 -3.471193 0.272097
v -0.508560 -3.469955 0.145694
v -0.519871 -3.468673 0.015347
v -0.508374 -3.467387 -0.114983
v -0.474419 -3.466135 -0.241337
v -0.419037 -3.464956 -0.359876
v -0.343912 -3.463885 -0.466997
v -0.251326 -3.462955 -0.559446
v -0.144092 -3.462193 -0.634414
v -0.025469 -3.461625 -0.689622
v 0.100940 -3.461266 -0.723394
v 0.231071 -4.262140 -0.199125
v 0.302399 -4.262156 -0.195926
v 0.371555 -4.262235 -0.186529
v 0.436438 -4.262372 -0.171221
v 0.495076 -4.262564 -0.150465
v 0.545688 -4.262805 -0.124893
v 0.586737 -4.263088 -0.095282
v 0.616973 -4.263404 -0.062531
v 0.635480 -4.263744 -0.027635
v 0.641695 -4.264097 0.008344
v 0.635429 -4.264453 0.044315
v 0.616871 -4.264800 0.079184
v 0.586588 -4.265129 0.111892
v 0.545497 -4.265429 0.141444
v 0.494848 -4.265691 0.166943
v 0.436181 -4.265906 0.187614
v 0.371275 -4.266070 0.202829
v 0.302106 -4.266176 0.212126
v 0.230774 -4.266222 0.215223
v 0.159447 -4.266205 0.212024
v 0.090291 -4.266127 0.202627
v 0.025408 -4.265990 0.187319
v -0.033230 -4.265798 0.166563
v -0.083842 -4.265557 0.140991
v -0.124890 -4.265274 0.111380
v -0.155128 -4.264957 0.078629
v -0.173635 -4.264618 0.043734
v -0.179850 -4.264265 0.007754
v -0.173583 -4.263909 -0.028217
v -0.155026 -4.263561 -0.063086
v -0.124743 -4.263233 -0.095793
v -0.083652 -4.262933 -0.125346
v -0.033003 -4.262671 -0.150845
v 0.025665 -4.262455 -0.171516
v 0.090570 -4.262292 -0.186731
v 0.159739 -4.262186 -0.196028
v 0.246397 0.364588 -1.702617
v 0.904669 0.364588 -0.825540
v 0.904669 0.364588 0.928614
v 0.246397 0.364588 1.805691
v -0.411874 0.364588 0.928614
v -0.411874 0.364588 -0.825540
v -0.411874 13.185787 0.928614
v 0.246397 13.185787 -1.702617
v 0.904669 13.185787 -0.825540
v 0.904669 13.185787 0.928614
v 0.246397 13.185787 1.805691
v -0.411874 13.185787 -0.825540
v 0.904669 13.750669 -0.475080
v 0.904668 13.750669 0.578154
v 0.246397 13.750669 1.104771
v -0.411874 13.750669 0.578154
v -0.411874 13.750669 -0.475080
v 0.153733 14.202618 0.275578
v 0.246397 14.202618 0.499619
v 0.339063 14.202618 0.275578
v 0.246397 14.309309 0.051537
v 0.153733 14.202618 -0.172504
v 0.339063 14.202618 -0.172504
v 0.246397 13.750669 -1.001697
v 0.246397 14.202618 -0.396546
v 0.246397 -0.076288 -1.702617
v 0.246397 0.364588 -1.702617
v 0.904669 0.364588 -0.825540
v 0.904669 0.364588 0.928614
v 0.246397 -0.076288 1.805691
v 0.246397 0.364588 1.805691
v -0.411874 -0.076288 0.928614
v -0.411874 0.364588 0.928614
v -0.411874 -0.076288 -0.825540
v -0.411874 0.364588 -0.825540
v 0.904669 -0.076288 -0.825540
v 1.157894 -0.119273 -1.067928
v 1.170341 0.266711 -1.071554
v -0.664315 -0.060637 -1.081402
v -0.651868 0.325347 -1.085028
v 1.170810 -0.136816 -2.891001
v 1.183257 0.249168 -2.894628
v -0.651399 -0.078179 -2.904475
v -0.638952 0.307805 -2.908101
v 0.904669 -0.076288 0.928614
v -0.679555 0.362952 2.823030
v -0.692002 -0.023031 2.826656
v 1.142653 0.304317 2.836504
v 1.130206 -0.081667 2.840130
vn 0.0879 0.0098 -0.9961
vn 0.2595 0.0096 -0.9657
vn 0.4233 0.0090 -0.9060
vn 0.5742 0.0082 -0.8187
vn 0.7076 0.0071 -0.7066
vn 0.8196 0.0058 -0.5730
vn 0.9066 0.0043 -0.4219
vn 0.9661 0.0027 -0.2581
vn 0.9963 0.0011 -0.0864
vn 0.9961 -0.0007 0.0879
vn 0.9657 -0.0024 0.2595
vn 0.9060 -0.0040 0.4232
vn 0.8187 -0.0055 0.5741
vn 0.7066 -0.0068 0.7076
vn 0.5730 -0.0080 0.8195
vn 0.4220 -0.0088 0.9066
vn 0.2581 -0.0095 0.9661
vn 0.0864 -0.0098 0.9962
vn -0.0879 -0.0098 0.9961
vn -0.2595 -0.0096 0.9657
vn -0.4233 -0.0090 0.9060
vn -0.5742 -0.0082 0.8187
vn -0.7076 -0.0071 0.7066
vn -0.8196 -0.0058 0.5730
vn -0.9066 -0.0043 0.4219
vn -0.9661 -0.0027 0.2581
vn -0.9963 -0.0011 0.0864
vn -0.9961 0.0007 -0.0879
vn -0.9657 0.0024 -0.2595
vn -0.9060 0.0040 -0.4232
vn -0.8187 0.0055 -0.5741
vn -0.7066 0.0068 -0.7076
vn -0.5730 0.0080 -0.8195
vn -0.4220 0.0088 -0.9066
vn -0.0002 1.0000 0.0098
vn -0.2581 0.0095 -0.9661
vn -0.0864 0.0098 -0.9962
vn 0.0591 -0.5697 0.8198
vn 0.0002 -1.0000 -0.0099
vn 0.5551 -0.4836 -0.6768
vn -0.5539 -0.4838 -0.6776
vn -0.0600 -0.5697 0.8197
vn 0.6773 -0.4543 -0.5787
vn -0.4273 -0.5102 -0.7464
vn -0.1801 -0.5620 0.8073
vn 0.7860 -0.4261 -0.4479
vn -0.3016 -0.5314 -0.7916
vn -0.3028 -0.5469 0.7805
vn 0.8691 -0.4038 -0.2857
vn -0.1789 -0.5460 -0.8184
vn -0.4283 -0.5248 0.7356
vn 0.9144 -0.3921 -0.1002
vn -0.0588 -0.5534 -0.8308
vn -0.5549 -0.4970 0.6671
vn 0.9143 -0.3940 0.0938
vn -0.6771 -0.4659 0.5696
vn 0.8687 -0.4094 0.2789
vn -0.7858 -0.4352 0.4394
vn 0.7854 -0.4349 0.4405
vn -0.8689 -0.4097 0.2776
vn 0.6765 -0.4656 0.5706
vn -0.9143 -0.3944 0.0925
vn 0.5541 -0.4968 0.6679
vn 0.0603 -0.5534 -0.8307
vn -0.9141 -0.3925 -0.1015
vn 0.4275 -0.5246 0.7362
vn 0.1803 -0.5459 -0.8182
vn -0.8685 -0.4042 -0.2869
vn 0.3019 -0.5468 0.7810
vn 0.3030 -0.5313 -0.7912
vn -0.7852 -0.4264 -0.4490
vn 0.1792 -0.5620 0.8075
vn 0.4286 -0.5100 -0.7458
vn -0.6763 -0.4546 -0.5796
vn 0.7998 0.0000 0.6003
vn -0.7998 0.0000 -0.6003
vn -0.7998 0.0000 0.6003
vn 1.0000 0.0000 0.0000
vn -1.0000 0.0000 0.0000
vn 0.7998 0.0000 -0.6003
vn 0.6153 0.5370 0.5771
vn 0.6153 0.5370 -0.5771
vn -0.6153 0.5370 -0.5771
vn -0.6153 0.5370 0.5771
vn 0.6242 0.7812 -0.0000
vn 0.4633 0.7553 0.4635
vn -0.4633 0.7553 0.4635
vn -0.6242 0.7812 0.0000
vn -0.4633 0.7553 -0.4635
vn 0.4633 0.7553 -0.4635
vn -0.7550 0.6557 0.0000
vn -0.4886 0.8488 0.2021
vn 0.4886 0.8488 0.2021
vn 0.7550 0.6557 0.0000
vn -0.4886 0.8488 -0.2021
vn 0.4886 0.8488 -0.2021
vn 0.0000 -1.0000 -0.0000
vn -0.9995 0.0322 -0.0074
vn -0.0322 -0.9994 0.0094
vn 0.9995 -0.0322 0.0074
vn 0.0071 -0.0096 -0.9999
vn 0.0322 0.9994 -0.0094
vn -0.0071 0.0096 0.9999
usemtl Material.003
s off
f 1//1 2//1 4//1 3//1
f 3//2 4//2 6//2 5//2
f 5//3 6//3 8//3 7//3
f 7//4 8//4 10//4 9//4
f 9//5 10//5 12//5 11//5
f 11//6 12//6 14//6 13//6
f 13//7 14//7 16//7 15//7
f 15//8 16//8 18//8 17//8
f 17//9 18//9 20//9 19//9
f 19//10 20//10 22//10 21//10
f 21//11 22//11 24//11 23//11
f 23//12 24//12 26//12 25//12
f 25//13 26//13 28//13 27//13
f 27//14 28//14 30//14 29//14
f 29//15 30//15 32//15 31//15
f 31//16 32//16 34//16 33//16
f 33//17 34//17 36//17 35//17
f 35//18 36//18 38//18 37//18
f 37//19 38//19 40//19 39//19
f 39//20 40//20 42//20 41//20
f 41//21 42//21 44//21 43//21
f 43//22 44//22 46//22 45//22
f 45//23 46//23 48//23 47//23
f 47//24 48//24 50//24 49//24
f 49//25 50//25 52//25 51//25
f 51//26 52//26 54//26 53//26
f 53//27 54//27 56//27 55//27
f 55//28 56//28 58//28 57//28
f 57//29 58//29 60//29 59//29
f 59//30 60//30 62//30 61//30
f 61//31 62//31 64//31 63//31
f 63//32 64//32 66//32 65//32
f 65//33 66//33 68//33 67//33
f 67//34 68//34 70//34 69//34
f 4//35 2//35 72//35 70//35 68//35 66//35 64//35 62//35 60//35 58//35 56//35 54//35 52//35 50//35 48//35 46//35 44//35 42//35 40//35 38//35 36//35 34//35 32//35 30//35 28//35 26//35 24//35 22//35 20//35 18//35 16//35 14//35 12//35 10//35 8//35 6//35
f 69//36 70//36 72//36 71//36
f 71//37 72//37 2//37 1//37
f 23//11 84//11 83//11 21//11
f 91//38 127//38 126//38 90//38
f 41//20 93//20 92//20 39//20
f 59//29 102//29 101//29 57//29
f 15//7 80//7 79//7 13//7
f 33//16 89//16 88//16 31//16
f 51//25 98//25 97//25 49//25
f 69//34 107//34 106//34 67//34
f 7//3 76//3 75//3 5//3
f 25//12 85//12 84//12 23//12
f 43//21 94//21 93//21 41//21
f 61//30 103//30 102//30 59//30
f 17//8 81//8 80//8 15//8
f 35//17 90//17 89//17 33//17
f 53//26 99//26 98//26 51//26
f 71//36 108//36 107//36 69//36
f 9//4 77//4 76//4 7//4
f 27//13 86//13 85//13 25//13
f 45//22 95//22 94//22 43//22
f 63//31 104//31 103//31 61//31
f 19//9 82//9 81//9 17//9
f 37//18 91//18 90//18 35//18
f 55//27 100//27 99//27 53//27
f 1//37 73//37 108//37 71//37
f 11//5 78//5 77//5 9//5
f 29//14 87//14 86//14 27//14
f 47//23 96//23 95//23 45//23
f 3//1 74//1 73//1 1//1
f 65//32 105//32 104//32 63//32
f 21//10 83//10 82//10 19//10
f 39//19 92//19 91//19 37//19
f 57//28 101//28 100//28 55//28
f 13//6 79//6 78//6 11//6
f 31//15 88//15 87//15 29//15
f 49//24 97//24 96//24 47//24
f 67//33 106//33 105//33 65//33
f 5//2 75//2 74//2 3//2
f 109//39 110//39 111//39 112//39 113//39 114//39 115//39 116//39 117//39 118//39 119//39 120//39 121//39 122//39 123//39 124//39 125//39 126//39 127//39 128//39 129//39 130//39 131//39 132//39 133//39 134//39 135//39 136//39 137//39 138//39 139//39 140//39 141//39 142//39 143//39 144//39
f 78//40 114//40 113//40 77//40
f 105//41 141//41 140//41 104//41
f 92//42 128//42 127//42 91//42
f 79//43 115//43 114//43 78//43
f 106//44 142//44 141//44 105//44
f 93//45 129//45 128//45 92//45
f 80//46 116//46 115//46 79//46
f 107//47 143//47 142//47 106//47
f 94//48 130//48 129//48 93//48
f 81//49 117//49 116//49 80//49
f 108//50 144//50 143//50 107//50
f 95//51 131//51 130//51 94//51
f 82//52 118//52 117//52 81//52
f 73//53 109//53 144//53 108//53
f 96//54 132//54 131//54 95//54
f 83//55 119//55 118//55 82//55
f 97//56 133//56 132//56 96//56
f 84//57 120//57 119//57 83//57
f 98//58 134//58 133//58 97//58
f 85//59 121//59 120//59 84//59
f 99//60 135//60 134//60 98//60
f 86//61 122//61 121//61 85//61
f 100//62 136//62 135//62 99//62
f 87//63 123//63 122//63 86//63
f 74//64 110//64 109//64 73//64
f 101//65 137//65 136//65 100//65
f 88//66 124//66 123//66 87//66
f 75//67 111//67 110//67 74//67
f 102//68 138//68 137//68 101//68
f 89//69 125//69 124//69 88//69
f 76//70 112//70 111//70 75//70
f 103//71 139//71 138//71 102//71
f 90//72 126//72 125//72 89//72
f 77//73 113//73 112//73 76//73
f 104//74 140//74 139//74 103//74
usemtl Material.001
f 147//75 154//75 155//75 148//75
f 150//76 156//76 152//76 145//76
f 148//77 155//77 151//77 149//77
f 146//78 153//78 154//78 147//78
f 149//79 151//79 156//79 150//79
f 145//80 152//80 153//80 146//80
f 153//78 157//78 158//78 154//78
f 151//79 160//79 161//79 156//79
f 154//81 158//81 159//81 155//81
f 152//82 168//82 157//82 153//82
f 156//83 161//83 168//83 152//83
f 155//84 159//84 160//84 151//84
f 158//85 157//85 167//85 164//85
f 159//86 158//86 164//86 163//86
f 160//87 159//87 163//87 162//87
f 161//88 160//88 162//88 166//88
f 168//89 161//89 166//89 169//89
f 157//90 168//90 169//90 167//90
f 162//91 165//91 166//91
f 162//92 163//92 165//92
f 164//93 165//93 163//93
f 164//94 167//94 165//94
f 169//95 166//95 165//95
f 165//96 167//96 169//96
usemtl Material.002
f 170//80 171//80 172//80 180//80
f 180//78 172//78 173//78 189//78
f 189//75 173//75 175//75 174//75
f 174//77 175//77 177//77 176//77
f 176//79 177//79 179//79 178//79
f 178//76 179//76 171//76 170//76
f 170//97 180//97 189//97 174//97 176//97 178//97
f 184//98 188//98 187//98 183//98
f 181//99 183//99 187//99 185//99
f 186//100 182//100 181//100 185//100
f 188//101 186//101 185//101 187//101
f 183//99 181//99 193//99 191//99
f 186//102 188//102 184//102 182//102
f 184//98 183//98 191//98 190//98
f 192//103 190//103 191//103 193//103
f 182//102 184//102 190//102 192//102
f 181//100 182//100 192//100 193//100
